<?xml version="1.0" encoding="iso-8859-1"?>
<!-- Uploaded to: SVG Repo, www.svgrepo.com, Generator: SVG Repo Mixer Tools -->
<svg height="800px" width="800px" version="1.1" id="Layer_1" xmlns="http://www.w3.org/2000/svg" xmlns:xlink="http://www.w3.org/1999/xlink" 
	 viewBox="0 0 512 512" xml:space="preserve">
<g transform="translate(1 1)">
	<g>
		<path style="fill:#FFDD09;" d="M323.267,16.067c-14.507,0-25.6,11.947-25.6,25.6v25.6v17.067v34.133
			c0,18.773-15.36,34.133-34.133,34.133S229.4,137.24,229.4,118.467v-25.6V75.8v-8.533c0-14.507-11.947-25.6-25.6-25.6
			c-13.653,0-25.6,11.093-25.6,25.6v25.6v68.267V408.6c0,46.933,38.4,85.333,85.333,85.333s85.333-38.4,85.333-85.333V161.133v-76.8
			V41.667C348.867,28.013,337.773,16.067,323.267,16.067"/>
		<path style="fill:#FFDD09;" d="M127,75.8c-9.387,0-17.067,7.68-17.067,17.067v17.067v8.533v68.267
			c0,18.773-15.36,34.133-34.133,34.133s-34.133-15.36-34.133-34.133v-25.6V152.6v-17.067c0-9.387-7.68-17.067-17.067-17.067
			s-17.067,7.68-17.067,17.067v25.6V178.2V383c0,37.547,30.72,68.267,68.267,68.267s68.267-30.72,68.267-68.267V178.2v-59.733v-25.6
			C144.067,83.48,136.387,75.8,127,75.8"/>
		<path style="fill:#FFDD09;" d="M485.4,109.933c-9.387,0-17.067,7.68-17.067,17.067v17.067v8.533v34.133
			c0,9.387-7.68,17.067-17.067,17.067s-17.067-7.68-17.067-17.067V152.6v-8.533V84.333c0-14.507-11.093-25.6-25.6-25.6
			c-14.507,0-25.6,11.093-25.6,25.6V152.6v25.6v145.067c0,33.28,26.453,59.733,59.733,59.733s59.733-26.453,59.733-59.733V186.733
			V152.6V127C502.467,117.613,494.787,109.933,485.4,109.933"/>
	</g>
	<g>
		<path style="fill:#FD9808;" d="M109.933,383c0,18.773-15.36,34.133-34.133,34.133S41.667,401.773,41.667,383
			c0-18.773,15.36-34.133,34.133-34.133S109.933,364.227,109.933,383"/>
		<path style="fill:#FD9808;" d="M314.733,408.6c0,28.16-23.04,51.2-51.2,51.2c-28.16,0-51.2-23.04-51.2-51.2
			c0-28.16,23.04-51.2,51.2-51.2C291.693,357.4,314.733,380.44,314.733,408.6"/>
		<path style="fill:#FD9808;" d="M468.333,323.267c0,14.507-11.093,25.6-25.6,25.6c-14.507,0-25.6-11.093-25.6-25.6
			c0-14.507,11.093-25.6,25.6-25.6C457.24,297.667,468.333,308.76,468.333,323.267"/>
	</g>
	<path d="M75.8,425.667c-23.893,0-42.667-18.773-42.667-42.667c0-23.893,18.773-42.667,42.667-42.667s42.667,18.773,42.667,42.667
		C118.467,406.893,99.693,425.667,75.8,425.667z M75.8,357.4c-14.507,0-25.6,11.093-25.6,25.6c0,14.507,11.093,25.6,25.6,25.6
		s25.6-11.093,25.6-25.6C101.4,368.493,90.307,357.4,75.8,357.4z"/>
	<path d="M263.533,468.333c-33.28,0-59.733-26.453-59.733-59.733s26.453-59.733,59.733-59.733s59.733,26.453,59.733,59.733
		S296.813,468.333,263.533,468.333z M263.533,365.933c-23.893,0-42.667,18.773-42.667,42.667c0,23.893,18.773,42.667,42.667,42.667
		c23.893,0,42.667-18.773,42.667-42.667C306.2,384.707,287.427,365.933,263.533,365.933z"/>
	<path d="M272.067,417.133c0,5.12-3.413,8.533-8.533,8.533c-5.12,0-8.533-3.413-8.533-8.533s3.413-8.533,8.533-8.533
		C268.653,408.6,272.067,412.013,272.067,417.133"/>
	<path d="M289.133,442.733c0,5.12-3.413,8.533-8.533,8.533s-8.533-3.413-8.533-8.533c0-5.12,3.413-8.533,8.533-8.533
		S289.133,437.613,289.133,442.733"/>
	<path d="M255,442.733c0,5.12-3.413,8.533-8.533,8.533c-5.12,0-8.533-3.413-8.533-8.533c0-5.12,3.413-8.533,8.533-8.533
		C251.587,434.2,255,437.613,255,442.733"/>
	<path d="M306.2,417.133c0,5.12-3.413,8.533-8.533,8.533s-8.533-3.413-8.533-8.533s3.413-8.533,8.533-8.533
		S306.2,412.013,306.2,417.133"/>
	<path d="M237.933,417.133c0,5.12-3.413,8.533-8.533,8.533c-5.12,0-8.533-3.413-8.533-8.533s3.413-8.533,8.533-8.533
		C234.52,408.6,237.933,412.013,237.933,417.133"/>
	<path d="M442.733,357.4c-18.773,0-34.133-15.36-34.133-34.133s15.36-34.133,34.133-34.133c18.773,0,34.133,15.36,34.133,34.133
		S461.507,357.4,442.733,357.4z M442.733,306.2c-9.387,0-17.067,7.68-17.067,17.067s7.68,17.067,17.067,17.067
		s17.067-7.68,17.067-17.067S452.12,306.2,442.733,306.2z"/>
	<path d="M263.533,502.467c-52.053,0-93.867-41.813-93.867-93.867V67.267c0-18.773,15.36-34.133,34.133-34.133
		s34.133,15.36,34.133,34.133v51.2c0,14.507,11.093,25.6,25.6,25.6c14.507,0,25.6-11.093,25.6-25.6v-76.8
		c0-18.773,15.36-34.133,34.133-34.133S357.4,22.893,357.4,41.667V408.6C357.4,460.653,315.587,502.467,263.533,502.467z
		 M203.8,50.2c-9.387,0-17.067,7.68-17.067,17.067V408.6c0,42.667,34.133,76.8,76.8,76.8s76.8-34.133,76.8-76.8V41.667
		c0-9.387-7.68-17.067-17.067-17.067S306.2,32.28,306.2,41.667v76.8c0,23.893-18.773,42.667-42.667,42.667
		c-23.893,0-42.667-18.773-42.667-42.667v-51.2C220.867,57.88,213.187,50.2,203.8,50.2z"/>
	<path d="M75.8,459.8C33.133,459.8-1,425.667-1,383V135.533c0-14.507,11.093-25.6,25.6-25.6s25.6,11.093,25.6,25.6v51.2
		c0,14.507,11.093,25.6,25.6,25.6s25.6-11.093,25.6-25.6V92.867c0-14.507,11.093-25.6,25.6-25.6s25.6,11.093,25.6,25.6V383
		C152.6,425.667,118.467,459.8,75.8,459.8z M24.6,127c-5.12,0-8.533,3.413-8.533,8.533V383c0,33.28,26.453,59.733,59.733,59.733
		S135.533,416.28,135.533,383V92.867c0-5.12-3.413-8.533-8.533-8.533s-8.533,3.413-8.533,8.533v93.867
		c0,23.893-18.773,42.667-42.667,42.667s-42.667-18.773-42.667-42.667v-51.2C33.133,130.413,29.72,127,24.6,127z"/>
	<path d="M442.733,391.533c-37.547,0-68.267-30.72-68.267-68.267V84.333c0-18.773,15.36-34.133,34.133-34.133
		c18.773,0,34.133,15.36,34.133,34.133v102.4c0,5.12,3.413,8.533,8.533,8.533s8.533-3.413,8.533-8.533V127
		c0-14.507,11.093-25.6,25.6-25.6S511,112.493,511,127v196.267C511,360.813,480.28,391.533,442.733,391.533z M408.6,67.267
		c-9.387,0-17.067,7.68-17.067,17.067v238.933c0,28.16,23.04,51.2,51.2,51.2c28.16,0,51.2-23.04,51.2-51.2V127
		c0-5.12-3.413-8.533-8.533-8.533s-8.533,3.413-8.533,8.533v59.733c0,14.507-11.093,25.6-25.6,25.6s-25.6-11.093-25.6-25.6v-102.4
		C425.667,74.947,417.987,67.267,408.6,67.267z"/>
	<path d="M272.067,255c0,5.12-3.413,8.533-8.533,8.533c-5.12,0-8.533-3.413-8.533-8.533s3.413-8.533,8.533-8.533
		C268.653,246.467,272.067,249.88,272.067,255"/>
	<path d="M263.533,229.4c-5.12,0-8.533-3.413-8.533-8.533V203.8c0-5.12,3.413-8.533,8.533-8.533c5.12,0,8.533,3.413,8.533,8.533
		v17.067C272.067,225.987,268.653,229.4,263.533,229.4z"/>
	<path d="M263.533,323.267c-5.12,0-8.533-3.413-8.533-8.533v-25.6c0-5.12,3.413-8.533,8.533-8.533c5.12,0,8.533,3.413,8.533,8.533
		v25.6C272.067,319.853,268.653,323.267,263.533,323.267z"/>
	<path d="M84.333,255c0,5.12-3.413,8.533-8.533,8.533s-8.533-3.413-8.533-8.533s3.413-8.533,8.533-8.533
		C80.92,246.467,84.333,249.88,84.333,255"/>
	<path d="M75.8,323.267c-5.12,0-8.533-3.413-8.533-8.533v-25.6c0-5.12,3.413-8.533,8.533-8.533c5.12,0,8.533,3.413,8.533,8.533v25.6
		C84.333,319.853,80.92,323.267,75.8,323.267z"/>
	<path d="M109.933,340.333c-5.12,0-8.533-3.413-8.533-8.533v-34.133c0-5.12,3.413-8.533,8.533-8.533s8.533,3.413,8.533,8.533V331.8
		C118.467,336.92,115.053,340.333,109.933,340.333z"/>
	<path d="M109.933,272.067c-5.12,0-8.533-3.413-8.533-8.533v-17.067c0-5.12,3.413-8.533,8.533-8.533s8.533,3.413,8.533,8.533v17.067
		C118.467,268.653,115.053,272.067,109.933,272.067z"/>
	<path d="M41.667,289.133c-5.12,0-8.533-3.413-8.533-8.533v-34.133c0-5.12,3.413-8.533,8.533-8.533s8.533,3.413,8.533,8.533V280.6
		C50.2,285.72,46.787,289.133,41.667,289.133z"/>
	<path d="M41.667,340.333c-5.12,0-8.533-3.413-8.533-8.533v-17.067c0-5.12,3.413-8.533,8.533-8.533s8.533,3.413,8.533,8.533V331.8
		C50.2,336.92,46.787,340.333,41.667,340.333z"/>
	<path d="M306.2,263.533c-5.12,0-8.533-3.413-8.533-8.533v-68.267c0-5.12,3.413-8.533,8.533-8.533s8.533,3.413,8.533,8.533V255
		C314.733,260.12,311.32,263.533,306.2,263.533z"/>
	<path d="M306.2,314.733c-5.12,0-8.533-3.413-8.533-8.533v-17.067c0-5.12,3.413-8.533,8.533-8.533s8.533,3.413,8.533,8.533V306.2
		C314.733,311.32,311.32,314.733,306.2,314.733z"/>
	<path d="M220.867,314.733c-5.12,0-8.533-3.413-8.533-8.533v-68.267c0-5.12,3.413-8.533,8.533-8.533c5.12,0,8.533,3.413,8.533,8.533
		V306.2C229.4,311.32,225.987,314.733,220.867,314.733z"/>
	<path d="M220.867,212.333c-5.12,0-8.533-3.413-8.533-8.533v-17.067c0-5.12,3.413-8.533,8.533-8.533c5.12,0,8.533,3.413,8.533,8.533
		V203.8C229.4,208.92,225.987,212.333,220.867,212.333z"/>
	<path d="M451.267,237.933c0,5.12-3.413,8.533-8.533,8.533c-5.12,0-8.533-3.413-8.533-8.533c0-5.12,3.413-8.533,8.533-8.533
		C447.853,229.4,451.267,232.813,451.267,237.933"/>
	<path d="M476.867,263.533c0,5.12-3.413,8.533-8.533,8.533c-5.12,0-8.533-3.413-8.533-8.533c0-5.12,3.413-8.533,8.533-8.533
		C473.453,255,476.867,258.413,476.867,263.533"/>
	<path d="M425.667,263.533c0,5.12-3.413,8.533-8.533,8.533s-8.533-3.413-8.533-8.533c0-5.12,3.413-8.533,8.533-8.533
		S425.667,258.413,425.667,263.533"/>
</g>
</svg>